<svg fill="#000000" xmlns="http://www.w3.org/2000/svg" viewBox="0 0 32 32" width="32px" height="32px"><path d="M 7.5 4 C 6.1309372 4 5 5.1309372 5 6.5 L 5 7 L 5 8 L 7 8 L 7 7 L 7 6.5 C 7 6.2130628 7.2130628 6 7.5 6 L 24.5 6 C 24.786937 6 25 6.2130628 25 6.5 L 25 7 L 25 8 L 27 8 L 27 7 L 27 6.5 C 27 5.1309372 25.869063 4 24.5 4 L 7.5 4 z M 20.5 10 C 19.682937 10 19 10.682937 19 11.5 L 19 20.5 C 19 21.317063 19.682937 22 20.5 22 L 24.5 22 C 26.539442 22 28.189452 20.208742 27.982422 18.142578 C 27.866225 16.988593 27.109988 16.201403 26.179688 15.660156 C 26.665924 15.05874 27 14.326771 27 13.5 C 27 11.578812 25.421188 10 23.5 10 L 20.5 10 z M 6.6152344 10.007812 C 6.1487779 10.062743 5.6757895 10.48269 5.6015625 10.996094 L 4.1933594 20.675781 L 4.0488281 21.666016 L 6.0292969 21.953125 L 6.171875 20.964844 L 7.1132812 14.501953 L 9.2304688 20.123047 A 1.0001 1.0001 0 0 0 9.234375 20.134766 C 9.4411298 20.663722 9.9895207 21 10.5 21 C 11.010479 21 11.558866 20.663723 11.765625 20.134766 A 1.0001 1.0001 0 0 0 11.769531 20.123047 L 13.886719 14.501953 L 14.828125 20.964844 L 14.970703 21.953125 L 16.951172 21.666016 L 16.806641 20.675781 L 15.398438 10.996094 C 15.324167 10.482409 14.848222 10.061748 14.382812 10.007812 C 13.917404 9.9538775 13.355241 10.256313 13.166016 10.740234 A 1.0001 1.0001 0 0 0 13.162109 10.751953 L 10.5 17.820312 L 7.8378906 10.751953 A 1.0001 1.0001 0 0 0 7.8339844 10.742188 C 7.6461651 10.258809 7.0816908 9.9528845 6.6152344 10.007812 z M 21 12 L 23.5 12 C 24.340812 12 25 12.659188 25 13.5 C 25 14.340812 24.340812 15 23.5 15 L 23 15 L 23 17 L 23.5 17 L 24.357422 17 C 25.185809 17 25.916901 17.594108 25.992188 18.341797 C 26.085157 19.269633 25.392558 20 24.5 20 L 21 20 L 21 12 z M 4 24 L 4 25 L 4 25.5 C 4 26.869063 5.1309372 28 6.5 28 L 25.5 28 C 26.869063 28 28 26.869063 28 25.5 L 28 25 L 28 24 L 26 24 L 26 25 L 26 25.5 C 26 25.786937 25.786937 26 25.5 26 L 6.5 26 C 6.2130628 26 6 25.786937 6 25.5 L 6 25 L 6 24 L 4 24 z"/></svg>